<?xml version="1.0" encoding="utf-8"?>
<!-- Generator: Adobe Illustrator 19.2.1, SVG Export Plug-In . SVG Version: 6.00 Build 0)  -->
<!DOCTYPE svg PUBLIC "-//W3C//DTD SVG 1.1//EN" "http://www.w3.org/Graphics/SVG/1.1/DTD/svg11.dtd">
<svg version="1.1" id="Layer_1" xmlns="http://www.w3.org/2000/svg" xmlns:xlink="http://www.w3.org/1999/xlink" x="0px" y="0px"
	 viewBox="0 0 800 600" enable-background="new 0 0 800 600" xml:space="preserve">
<g>
	<path fill="none" stroke="#FFFFFF" stroke-width="10" stroke-miterlimit="10" d="M592,312.4c3.3-6.6,8.7-6.6,11.9,0l58,115.6
		c3.3,6.6,9,17.1,12.6,23.5l56.6,98c3.7,6.3,0.7,11.5-6.7,11.5H611.3c-7.3,0-19.3,0-26.7,0H471.5c-7.3,0-10.3-5.2-6.7-11.5l56.6-98
		c3.7-6.3,9.4-16.9,12.6-23.5L592,312.4z"/>
</g>
<path fill="#FFFFFF" d="M610,510.4c-12.6,0-22.9,10.2-22.9,22.9c0,12.6,10.3,22.9,22.9,22.9c12.6,0,22.9-10.2,22.9-22.9
	C632.9,520.6,622.7,510.4,610,510.4z M610,545.2c-6.6,0-11.9-5.4-11.9-11.9c0-6.6,5.4-11.9,11.9-11.9c6.6,0,11.9,5.3,11.9,11.9
	C622,539.8,616.6,545.2,610,545.2z"/>
<path fill="#FFFFFF" d="M670.1,498.7c-3.9-17.2-66.3-30.9-66.3-30.9c-32.4-15.7-58.4-24.4-77.3-29.2l-5.1,8.5
	c36.6,8.7,67.6,25.8,67.6,25.8h-83.4l-32.6,61h109.5c0-16,12.5-28,28-28c15.5,0,28,12,28,28h26.7
	C681.9,531.9,670.1,498.7,670.1,498.7z"/>
<path fill="#FFFFFF" d="M642.8,392.7h-23.2c-2.1-4.8-5.3-8.7-9.1-11c-3.4-2.1-7.5-3.3-12.2-3.3c-10.4,0-19.4,5.8-24,14.4l20.6,0
	l7.4,12.7l-7.4,12.7h-20.6c4.6,8.6,13.6,14.4,24,14.4c4.6,0,8.7-1.2,12.1-3.2c3.9-2.3,7.2-6.2,9.3-11.1h35.3L642.8,392.7z"/>
</svg>
