<?xml version="1.0" encoding="UTF-8"?>
<svg width="700px" height="460px" viewBox="0 0 700 460" version="1.1" xmlns="http://www.w3.org/2000/svg" xmlns:xlink="http://www.w3.org/1999/xlink">
    <!-- Generator: Sketch 42 (36781) - http://www.bohemiancoding.com/sketch -->
    <title>Artboard 4</title>
    <desc>Created with Sketch.</desc>
    <defs></defs>
    <g id="Page-1" stroke="none" stroke-width="1" fill="none" fill-rule="evenodd">
        <g id="Artboard-4">
            <circle id="Oval-17" fill="#FFE5AB" cx="357" cy="266" r="250"></circle>
            <rect id="asphalt" fill="#B0BAC3" x="131" y="385" width="450" height="22"></rect>
            <rect id="Rectangle-58" fill="#509BC4" x="130" y="407" width="450" height="78"></rect>
            <g id="Group" transform="translate(154.000000, 416.000000)" fill-rule="nonzero" fill="#7ECDF8">
                <path d="M39.7798457,15.7230675 C39.8069089,19.2575474 37.8465656,22.640553 34.7099249,24.4042573 C31.5732972,26.167983 27.7075328,26.1472683 24.5909035,24.3500606 C21.4742849,22.5528315 19.6268821,19.1494111 19.6936753,15.6154475 C26.4964664,15.229139 33.1551341,15.4141702 39.7798457,15.7230696 L39.7798457,15.7230675 Z" id="path6137"></path>
                <path d="M196.846382,0.32558661 C196.873445,3.86006649 194.913101,7.24307211 191.776461,9.00677642 C188.639833,10.7705021 184.774069,10.7497875 181.657439,8.95257978 C178.540821,7.15535068 176.693418,3.75193027 176.760211,0.217966651 C183.563002,-0.168341851 190.22167,0.0166893307 196.846382,0.325588752 L196.846382,0.32558661 Z" id="path6137-copy"></path>
                <path d="M352.506351,20.8555611 C352.533415,24.390041 350.573071,27.7730466 347.436431,29.5367509 C344.299803,31.3004766 340.434039,31.279762 337.317409,29.4825543 C334.200791,27.6853252 332.353388,24.2819048 332.420181,20.7479411 C339.222972,20.3616326 345.88164,20.5466638 352.506351,20.8555632 L352.506351,20.8555611 Z" id="path6137-copy-2"></path>
                <path d="M20.0879218,15.7230675 C20.114985,19.2575474 18.1546417,22.640553 15.018001,24.4042573 C11.8813733,26.167983 8.01560894,26.1472683 4.8989796,24.3500606 C1.78236102,22.5528315 -0.0650418086,19.1494111 0.00175143432,15.6154475 C6.80454255,15.229139 13.4632102,15.4141702 20.0879218,15.7230696 L20.0879218,15.7230675 Z" id="path6139"></path>
                <path d="M177.154458,0.32558661 C177.181521,3.86006649 175.221178,7.24307211 172.084537,9.00677642 C168.947909,10.7705021 165.082145,10.7497875 161.965515,8.95257978 C158.848897,7.15535068 157.001494,3.75193027 157.068287,0.217966651 C163.871078,-0.168341851 170.529746,0.0166893307 177.154458,0.325588752 L177.154458,0.32558661 Z" id="path6139-copy"></path>
                <path d="M333.283283,20.8555611 C333.310346,24.390041 331.350003,27.7730466 328.213362,29.5367509 C325.076734,31.3004766 321.21097,31.279762 318.094341,29.4825543 C314.977722,27.6853252 313.130319,24.2819048 313.197112,20.7479411 C319.999904,20.3616326 326.658571,20.5466638 333.283283,20.8555632 L333.283283,20.8555611 Z" id="path6139-copy-2"></path>
                <path d="M80.5702595,15.7230675 C80.5973227,19.2575474 78.6369793,22.640553 75.5003387,24.4042573 C72.363711,26.167983 68.4979466,26.1472683 65.3813173,24.3500606 C62.2646987,22.5528315 60.4172959,19.1494111 60.4840891,15.6154475 C67.2868802,15.229139 73.9455478,15.4141702 80.5702595,15.7230696 L80.5702595,15.7230675 Z" id="path6145"></path>
                <path d="M237.636795,0.32558661 C237.663859,3.86006649 235.703515,7.24307211 232.566875,9.00677642 C229.430247,10.7705021 225.564482,10.7497875 222.447853,8.95257978 C219.331235,7.15535068 217.483832,3.75193027 217.550625,0.217966651 C224.353416,-0.168341851 231.012084,0.0166893307 237.636795,0.325588752 L237.636795,0.32558661 Z" id="path6145-copy"></path>
                <path d="M393.765621,20.8555611 C393.792684,24.390041 391.83234,27.7730466 388.6957,29.5367509 C385.559072,31.3004766 381.693308,31.279762 378.576678,29.4825543 C375.46006,27.6853252 373.612657,24.2819048 373.67945,20.7479411 C380.482241,20.3616326 387.140909,20.5466638 393.765621,20.8555632 L393.765621,20.8555611 Z" id="path6145-copy-2"></path>
                <path d="M59.9406249,15.7230675 C59.9676882,19.2575474 58.0073448,22.640553 54.8707041,24.4042573 C51.7340764,26.167983 47.8683121,26.1472683 44.7516827,24.3500606 C41.6350641,22.5528315 39.7876613,19.1494111 39.8544546,15.6154475 C46.6572457,15.229139 53.3159133,15.4141702 59.9406249,15.7230696 L59.9406249,15.7230675 Z" id="path6147"></path>
                <path d="M217.476016,0.32558661 C217.503079,3.86006649 215.542736,7.24307211 212.406095,9.00677642 C209.269468,10.7705021 205.403703,10.7497875 202.287074,8.95257978 C199.170455,7.15535068 197.323053,3.75193027 197.389846,0.217966651 C204.192637,-0.168341851 210.851304,0.0166893307 217.476016,0.325588752 L217.476016,0.32558661 Z" id="path6147-copy"></path>
                <path d="M373.135986,20.8555611 C373.163049,24.390041 371.202706,27.7730466 368.066065,29.5367509 C364.929437,31.3004766 361.063673,31.279762 357.947044,29.4825543 C354.830425,27.6853252 352.983022,24.2819048 353.049816,20.7479411 C359.852607,20.3616326 366.511274,20.5466638 373.135986,20.8555632 L373.135986,20.8555611 Z" id="path6147-copy-2"></path>
                <path d="M100.731039,15.7230675 C100.758102,19.2575474 98.7977586,22.640553 95.6611179,24.4042573 C92.5244902,26.167983 88.6587259,26.1472683 85.5420965,24.3500606 C82.4254779,22.5528315 80.5780751,19.1494111 80.6448684,15.6154475 C87.4476595,15.229139 94.1063271,15.4141702 100.731039,15.7230696 L100.731039,15.7230675 Z" id="path6155"></path>
                <path d="M258.26643,0.32558661 C258.293493,3.86006649 256.33315,7.24307211 253.196509,9.00677642 C250.059881,10.7705021 246.194117,10.7497875 243.077488,8.95257978 C239.960869,7.15535068 238.113466,3.75193027 238.18026,0.217966651 C244.983051,-0.168341851 251.641718,0.0166893307 258.26643,0.325588752 L258.26643,0.32558661 Z" id="path6155-copy"></path>
                <path d="M413.9264,20.8555611 C413.953463,24.390041 411.99312,27.7730466 408.856479,29.5367509 C405.719851,31.3004766 401.854087,31.279762 398.737458,29.4825543 C395.620839,27.6853252 393.773436,24.2819048 393.840229,20.7479411 C400.643021,20.3616326 407.301688,20.5466638 413.9264,20.8555632 L413.9264,20.8555611 Z" id="path6155-copy-2"></path>
            </g>
            <g id="skyline" transform="translate(159.000000, 155.000000)">
                <rect id="Rectangle-5-Copy-15" fill="#ECECEC" x="25.6177006" y="74.7496743" width="36.8894889" height="154.619189"></rect>
                <rect id="Rectangle-5-Copy-16" fill="#ECECEC" x="69.6801457" y="110.588559" width="36.8894889" height="118.780304"></rect>
                <rect id="Rectangle-5-Copy-17" fill="#ECECEC" x="155.75562" y="88.0612601" width="36.8894889" height="141.307603"></rect>
                <rect id="Rectangle-5-Copy-18" fill="#ECECEC" x="235.682846" y="102.396814" width="36.8894889" height="126.972049"></rect>
                <rect id="Rectangle-5-Copy-19" fill="#ECECEC" x="194.694525" y="129.019986" width="36.8894889" height="100.230881"></rect>
                <rect id="Rectangle-5-Copy-20" fill="#ECECEC" x="297.165327" y="129.019986" width="36.8894889" height="100.230881"></rect>
                <rect id="Rectangle-5-Copy-21" fill="#ECECEC" x="358.647809" y="84.9893557" width="36.8894889" height="144.261512"></rect>
                <rect id="Rectangle-5" fill="#D8D8D8" x="98.3719704" y="72.701738" width="7.17295617" height="156.667126"></rect>
                <rect id="Rectangle-5-Copy-8" fill="#D8D8D8" x="158.829744" y="72.701738" width="7.17295617" height="156.667126"></rect>
                <rect id="Rectangle-5-Copy" fill="#D8D8D8" x="105.544927" y="49.1504708" width="53.2848173" height="180.218393"></rect>
                <rect id="Rectangle-5-Copy-10" fill="#D8D8D8" x="179.323904" y="102.396814" width="30.7412407" height="126.972049"></rect>
                <rect id="Rectangle-5-Copy-11" fill="#D8D8D8" x="217.238101" y="88.0612601" width="36.8894889" height="141.307603"></rect>
                <rect id="Rectangle-5-Copy-13" fill="#D8D8D8" x="327.906568" y="95.2290371" width="36.8894889" height="134.139826"></rect>
                <rect id="Rectangle-5-Copy-12" fill="#D8D8D8" x="44.0624451" y="62.4620566" width="36.8894889" height="166.906807"></rect>
                <rect id="Rectangle-5-Copy-14" fill="#D8D8D8" x="0" y="62.4620566" width="36.8894889" height="166.906807"></rect>
                <polygon id="Rectangle-5-Copy-9" fill="#D8D8D8" points="261.300546 28.6711079 314.585364 64.3239987 314.585364 229.604856 261.300546 229.604856"></polygon>
                <rect id="Rectangle-5-Copy-2" fill="#D8D8D8" x="113.742591" y="36.8628531" width="36.8894889" height="6.14380885"></rect>
                <rect id="Rectangle-5-Copy-6" fill="#D8D8D8" x="108.619051" y="43.0066619" width="47.1365691" height="6.14380885"></rect>
                <rect id="Rectangle-5-Copy-3" fill="#D8D8D8" x="119.890839" y="30.7190442" width="24.5929926" height="6.14380885"></rect>
                <rect id="Rectangle-5-Copy-4" fill="#D8D8D8" x="123.989671" y="24.5752354" width="16.3953284" height="6.14380885"></rect>
                <rect id="Rectangle-5-Copy-5" fill="#D8D8D8" x="129.113211" y="18.4314265" width="7.17295617" height="6.14380885"></rect>
                <rect id="Rectangle-5-Copy-7" fill="#D8D8D8" x="132.187335" y="0" width="1.02470802" height="19.4553947"></rect>
                <rect id="Rectangle-23" fill="#D8D8D8" x="88.1248901" y="210.937437" width="85.050766" height="18.4314265"></rect>
                <rect id="Rectangle-24" fill="#D8D8D8" x="323.807736" y="209.913469" width="46.1118611" height="19.4553947"></rect>
                <rect id="Rectangle-24-Copy" fill="#D8D8D8" x="334.054816" y="74.7496743" width="24.5929926" height="20.4793628"></rect>
                <polygon id="Path-3" fill="#D8D8D8" points="334.054816 74.6529273 358.653816 74.6529273 346.177692 62.4620566"></polygon>
            </g>
            <path d="M230.811024,131 L144.401575,131 L144.401575,130.773936 C136.233948,129.434927 130,122.308669 130,113.718563 C130,105.602743 135.56456,98.7935877 143.067102,96.9371815 C142.426105,95.0198151 142.07874,92.9668591 142.07874,90.8323353 C142.07874,80.2562477 150.606482,71.6826347 161.125984,71.6826347 C166.719641,71.6826347 171.750129,74.1068159 175.234767,77.9672114 C178.144612,63.7170467 190.689657,53 205.724409,53 C222.914816,53 236.850394,67.0105383 236.850394,84.2934132 C236.850394,88.7349014 235.93005,92.9602755 234.270638,96.7872849 C242.10564,98.3969464 248,105.365701 248,113.718563 C248,123.262837 240.304233,131 230.811024,131 Z" id="Combined-Shape" fill="#FFFFFF"></path>
            <path d="M155.366142,257 L101.909449,257 L101.909449,256.860884 C96.8565947,256.036878 93,251.651489 93,246.365269 C93,241.370919 96.4424821,237.180669 101.083885,236.038266 C100.687336,234.858348 100.472441,233.59499 100.472441,232.281437 C100.472441,225.773076 105.748078,220.497006 112.255906,220.497006 C115.716388,220.497006 118.82847,221.98881 120.984221,224.364438 C122.784378,215.595106 130.545296,209 139.846457,209 C150.4812,209 159.102362,217.62187 159.102362,228.257485 C159.102362,230.990709 158.532997,233.590939 157.506412,235.946021 C162.353489,236.936582 166,241.225047 166,246.365269 C166,252.238669 161.239059,257 155.366142,257 Z" id="Combined-Shape-Copy-2" fill="#FFFFFF"></path>
        </g>
    </g>
</svg>