<?xml version="1.0" encoding="UTF-8"?>
<svg width="1440px" height="1024px" viewBox="0 0 1440 1024" version="1.1" xmlns="http://www.w3.org/2000/svg" xmlns:xlink="http://www.w3.org/1999/xlink" style="background: #89E0FC;">
    <!-- Generator: Sketch 42 (36781) - http://www.bohemiancoding.com/sketch -->
    <title>intro</title>
    <desc>Created with Sketch.</desc>
    <defs>
        <rect id="path-1" x="18.4524674" y="422.5467" width="26.8875912" height="15.0909536"></rect>
        <mask id="mask-2" maskContentUnits="userSpaceOnUse" maskUnits="objectBoundingBox" x="0" y="0" width="26.8875912" height="15.0909536" fill="white">
            <use xlink:href="#path-1"></use>
        </mask>
        <rect id="path-3" x="6.92921407" y="87.5275308" width="49.9340979" height="9.05457215"></rect>
        <mask id="mask-4" maskContentUnits="userSpaceOnUse" maskUnits="objectBoundingBox" x="0" y="0" width="49.9340979" height="9.05457215" fill="white">
            <use xlink:href="#path-3"></use>
        </mask>
        <rect id="path-5" x="18.4524674" y="78.4729586" width="26.8875912" height="9.05457215"></rect>
        <mask id="mask-6" maskContentUnits="userSpaceOnUse" maskUnits="objectBoundingBox" x="0" y="0" width="26.8875912" height="9.05457215" fill="white">
            <use xlink:href="#path-5"></use>
        </mask>
        <rect id="path-7" x="26.1346363" y="33.2000979" width="11.5232534" height="45.2728608"></rect>
        <mask id="mask-8" maskContentUnits="userSpaceOnUse" maskUnits="objectBoundingBox" x="0" y="0" width="11.5232534" height="45.2728608" fill="white">
            <use xlink:href="#path-7"></use>
        </mask>
    </defs>
    <g id="Page-1" stroke="none" stroke-width="1" fill="none" fill-rule="evenodd">
        <g id="intro">
            <circle id="Oval-17" fill="#FFE5AB" cx="716" cy="601" r="539"></circle>
            <rect id="Rectangle-57" fill="#B0BAC3" x="242" y="856" width="958" height="47"></rect>
            <rect id="Rectangle-58" fill="#509BC4" x="241" y="902" width="958" height="167"></rect>
            <g id="Group" transform="translate(290.000000, 920.000000)" fill-rule="nonzero" fill="#7ECDF8">
                <path d="M84.8446058,33.6977997 C84.9023277,41.2729243 80.7212013,48.5234081 74.0312046,52.3033928 C67.3412354,56.0834234 59.0961241,56.0390276 52.4488086,52.1872382 C45.801516,48.3354029 41.8612753,41.0411659 42.0037356,33.4671478 C56.5130963,32.6392084 70.7150626,33.0357687 84.8446058,33.6978043 L84.8446058,33.6977997 Z" id="path6137"></path>
                <path d="M419.844606,0.697799739 C419.902328,8.27292433 415.721201,15.5234081 409.031205,19.3033928 C402.341235,23.0834234 394.096124,23.0390276 387.448809,19.1872382 C380.801516,15.3354029 376.861275,8.04116595 377.003736,0.467147812 C391.513096,-0.360791557 405.715063,0.0357687025 419.844606,0.69780433 L419.844606,0.697799739 Z" id="path6137-copy"></path>
                <path d="M751.844606,44.6977997 C751.902328,52.2729243 747.721201,59.5234081 741.031205,63.3033928 C734.341235,67.0834234 726.096124,67.0390276 719.448809,63.1872382 C712.801516,59.3354029 708.861275,52.0411659 709.003736,44.4671478 C723.513096,43.6392084 737.715063,44.0357687 751.844606,44.6978043 L751.844606,44.6977997 Z" id="path6137-copy-2"></path>
                <path d="M42.8446058,33.6977997 C42.9023277,41.2729243 38.7212013,48.5234081 32.0312046,52.3033928 C25.3412354,56.0834234 17.0961241,56.0390276 10.4488086,52.1872382 C3.80151595,48.3354029 -0.138724686,41.0411659 0.00373555381,33.4671478 C14.5130963,32.6392084 28.7150626,33.0357687 42.8446058,33.6978043 L42.8446058,33.6977997 Z" id="path6139"></path>
                <path d="M377.844606,0.697799739 C377.902328,8.27292433 373.721201,15.5234081 367.031205,19.3033928 C360.341235,23.0834234 352.096124,23.0390276 345.448809,19.1872382 C338.801516,15.3354029 334.861275,8.04116595 335.003736,0.467147812 C349.513096,-0.360791557 363.715063,0.0357687025 377.844606,0.69780433 L377.844606,0.697799739 Z" id="path6139-copy"></path>
                <path d="M710.844606,44.6977997 C710.902328,52.2729243 706.721201,59.5234081 700.031205,63.3033928 C693.341235,67.0834234 685.096124,67.0390276 678.448809,63.1872382 C671.801516,59.3354029 667.861275,52.0411659 668.003736,44.4671478 C682.513096,43.6392084 696.715063,44.0357687 710.844606,44.6978043 L710.844606,44.6977997 Z" id="path6139-copy-2"></path>
                <path d="M171.844606,33.6977997 C171.902328,41.2729243 167.721201,48.5234081 161.031205,52.3033928 C154.341235,56.0834234 146.096124,56.0390276 139.448809,52.1872382 C132.801516,48.3354029 128.861275,41.0411659 129.003736,33.4671478 C143.513096,32.6392084 157.715063,33.0357687 171.844606,33.6978043 L171.844606,33.6977997 Z" id="path6145"></path>
                <path d="M506.844606,0.697799739 C506.902328,8.27292433 502.721201,15.5234081 496.031205,19.3033928 C489.341235,23.0834234 481.096124,23.0390276 474.448809,19.1872382 C467.801516,15.3354029 463.861275,8.04116595 464.003736,0.467147812 C478.513096,-0.360791557 492.715063,0.0357687025 506.844606,0.69780433 L506.844606,0.697799739 Z" id="path6145-copy"></path>
                <path d="M839.844606,44.6977997 C839.902328,52.2729243 835.721201,59.5234081 829.031205,63.3033928 C822.341235,67.0834234 814.096124,67.0390276 807.448809,63.1872382 C800.801516,59.3354029 796.861275,52.0411659 797.003736,44.4671478 C811.513096,43.6392084 825.715063,44.0357687 839.844606,44.6978043 L839.844606,44.6977997 Z" id="path6145-copy-2"></path>
                <path d="M127.844606,33.6977997 C127.902328,41.2729243 123.721201,48.5234081 117.031205,52.3033928 C110.341235,56.0834234 102.096124,56.0390276 95.4488086,52.1872382 C88.801516,48.3354029 84.8612753,41.0411659 85.0037356,33.4671478 C99.5130963,32.6392084 113.715063,33.0357687 127.844606,33.6978043 L127.844606,33.6977997 Z" id="path6147"></path>
                <path d="M463.844606,0.697799739 C463.902328,8.27292433 459.721201,15.5234081 453.031205,19.3033928 C446.341235,23.0834234 438.096124,23.0390276 431.448809,19.1872382 C424.801516,15.3354029 420.861275,8.04116595 421.003736,0.467147812 C435.513096,-0.360791557 449.715063,0.0357687025 463.844606,0.69780433 L463.844606,0.697799739 Z" id="path6147-copy"></path>
                <path d="M795.844606,44.6977997 C795.902328,52.2729243 791.721201,59.5234081 785.031205,63.3033928 C778.341235,67.0834234 770.096124,67.0390276 763.448809,63.1872382 C756.801516,59.3354029 752.861275,52.0411659 753.003736,44.4671478 C767.513096,43.6392084 781.715063,44.0357687 795.844606,44.6978043 L795.844606,44.6977997 Z" id="path6147-copy-2"></path>
                <path d="M214.844606,33.6977997 C214.902328,41.2729243 210.721201,48.5234081 204.031205,52.3033928 C197.341235,56.0834234 189.096124,56.0390276 182.448809,52.1872382 C175.801516,48.3354029 171.861275,41.0411659 172.003736,33.4671478 C186.513096,32.6392084 200.715063,33.0357687 214.844606,33.6978043 L214.844606,33.6977997 Z" id="path6155"></path>
                <path d="M550.844606,0.697799739 C550.902328,8.27292433 546.721201,15.5234081 540.031205,19.3033928 C533.341235,23.0834234 525.096124,23.0390276 518.448809,19.1872382 C511.801516,15.3354029 507.861275,8.04116595 508.003736,0.467147812 C522.513096,-0.360791557 536.715063,0.0357687025 550.844606,0.69780433 L550.844606,0.697799739 Z" id="path6155-copy"></path>
                <path d="M882.844606,44.6977997 C882.902328,52.2729243 878.721201,59.5234081 872.031205,63.3033928 C865.341235,67.0834234 857.096124,67.0390276 850.448809,63.1872382 C843.801516,59.3354029 839.861275,52.0411659 840.003736,44.4671478 C854.513096,43.6392084 868.715063,44.0357687 882.844606,44.6978043 L882.844606,44.6977997 Z" id="path6155-copy-2"></path>
            </g>
            <g id="skyline" transform="translate(290.000000, 363.000000)">
                <rect id="Rectangle-5-Copy-15" fill="#ECECEC" x="55.1813472" y="161.248889" width="79.4611399" height="333.542222"></rect>
                <rect id="Rectangle-5-Copy-16" fill="#ECECEC" x="150.093264" y="238.56" width="79.4611399" height="256.231111"></rect>
                <rect id="Rectangle-5-Copy-17" fill="#ECECEC" x="335.502591" y="189.964444" width="79.4611399" height="304.826667"></rect>
                <rect id="Rectangle-5-Copy-18" fill="#ECECEC" x="507.668394" y="220.888889" width="79.4611399" height="273.902222"></rect>
                <rect id="Rectangle-5-Copy-19" fill="#ECECEC" x="419.378238" y="278.32" width="79.4611399" height="216.216571"></rect>
                <rect id="Rectangle-5-Copy-20" fill="#ECECEC" x="640.103627" y="278.32" width="79.4611399" height="216.216571"></rect>
                <rect id="Rectangle-5-Copy-21" fill="#ECECEC" x="772.53886" y="183.337778" width="79.4611399" height="311.198793"></rect>
                <rect id="Rectangle-5" fill="#D8D8D8" x="211.896373" y="156.831111" width="15.4507772" height="337.96"></rect>
                <rect id="Rectangle-5-Copy-8" fill="#D8D8D8" x="342.124352" y="156.831111" width="15.4507772" height="337.96"></rect>
                <rect id="Rectangle-5-Copy" fill="#D8D8D8" x="227.34715" y="106.026667" width="114.777202" height="388.764444"></rect>
                <rect id="Rectangle-5-Copy-10" fill="#D8D8D8" x="386.26943" y="220.888889" width="66.2176166" height="273.902222"></rect>
                <rect id="Rectangle-5-Copy-11" fill="#D8D8D8" x="467.937824" y="189.964444" width="79.4611399" height="304.826667"></rect>
                <rect id="Rectangle-5-Copy-13" fill="#D8D8D8" x="706.321244" y="205.426667" width="79.4611399" height="289.364444"></rect>
                <rect id="Rectangle-5-Copy-12" fill="#D8D8D8" x="94.9119171" y="134.742222" width="79.4611399" height="360.048889"></rect>
                <rect id="Rectangle-5-Copy-14" fill="#D8D8D8" x="0" y="134.742222" width="79.4611399" height="360.048889"></rect>
                <polygon id="Rectangle-5-Copy-9" fill="#D8D8D8" points="562.849741 61.8488889 677.626943 138.758776 677.626943 495.300191 562.849741 495.300191"></polygon>
                <rect id="Rectangle-5-Copy-2" fill="#D8D8D8" x="245.005181" y="79.52" width="79.4611399" height="13.2533333"></rect>
                <rect id="Rectangle-5-Copy-6" fill="#D8D8D8" x="233.968912" y="92.7733333" width="101.533679" height="13.2533333"></rect>
                <rect id="Rectangle-5-Copy-3" fill="#D8D8D8" x="258.248705" y="66.2666667" width="52.9740933" height="13.2533333"></rect>
                <rect id="Rectangle-5-Copy-4" fill="#D8D8D8" x="267.07772" y="53.0133333" width="35.3160622" height="13.2533333"></rect>
                <rect id="Rectangle-5-Copy-5" fill="#D8D8D8" x="278.11399" y="39.76" width="15.4507772" height="13.2533333"></rect>
                <rect id="Rectangle-5-Copy-7" fill="#D8D8D8" x="284.735751" y="0" width="2.20725389" height="41.9688889"></rect>
                <rect id="Rectangle-23" fill="#D8D8D8" x="189.823834" y="455.031111" width="183.202073" height="39.76"></rect>
                <rect id="Rectangle-24" fill="#D8D8D8" x="697.492228" y="452.822222" width="99.3264249" height="41.9688889"></rect>
                <rect id="Rectangle-24-Copy" fill="#D8D8D8" x="719.564767" y="161.248889" width="52.9740933" height="44.1777778"></rect>
                <polygon id="Path-3" fill="#D8D8D8" points="719.564767 161.040188 772.551799 161.040188 745.677831 134.742222"></polygon>
            </g>
            <g id="clouds" transform="translate(149.000000, 144.000000)" fill="#FFFFFF">
                <path d="M296,167 L110,167 L110,166.515992 C92.4188362,163.649138 79,148.391637 79,130 C79,112.623822 90.9779515,98.0452455 107.127491,94.0706321 C105.747718,89.9655015 105,85.5700702 105,81 C105,58.3563253 123.356325,40 146,40 C158.040583,40 168.868922,45.1902341 176.369754,53.4554398 C182.633317,22.9454718 209.637057,0 242,0 C279.003078,0 309,29.9969218 309,67 C309,76.5093401 307.018921,85.5559745 303.446967,93.7496997 C320.31214,97.1960262 333,112.116309 333,130 C333,150.434536 316.434536,167 296,167 Z" id="Combined-Shape"></path>
                <path d="M1110,334 L924,334 L924,333.515992 C906.418836,330.649138 893,315.391637 893,297 C893,279.623822 904.977951,265.045245 921.127491,261.070632 C919.747718,256.965502 919,252.57007 919,248 C919,225.356325 937.356325,207 960,207 C972.040583,207 982.868922,212.190234 990.369754,220.45544 C996.633317,189.945472 1023.63706,167 1056,167 C1093.00308,167 1123,196.996922 1123,234 C1123,243.50934 1121.01892,252.555974 1117.44697,260.7497 C1134.31214,264.196026 1147,279.116309 1147,297 C1147,317.434536 1130.43454,334 1110,334 Z" id="Combined-Shape-Copy"></path>
                <path d="M412.515748,231 L249.216535,231 L249.216535,230.573957 C233.781104,228.050438 222,214.620184 222,198.431138 C222,183.13594 232.516076,170.3033 246.694608,166.804688 C245.483232,163.19119 244.826772,159.322158 244.826772,155.299401 C244.826772,135.367544 260.942758,119.209581 280.822835,119.209581 C291.393898,119.209581 300.900667,123.77823 307.486043,131.053591 C312.985156,104.197511 336.693164,84 365.106299,84 C397.593254,84 423.929134,110.404476 423.929134,142.976048 C423.929134,151.346545 422.18984,159.30975 419.053833,166.522191 C433.860658,169.555784 445,182.689206 445,198.431138 C445,216.418424 430.456305,231 412.515748,231 Z" id="Combined-Shape-Copy-3" fill-opacity="0.74000001" transform="translate(333.500000, 157.500000) scale(-1, 1) translate(-333.500000, -157.500000) "></path>
                <path d="M969.799213,361.520179 L843.114173,361.520179 L843.114173,361.189662 C831.139601,359.231955 822,348.812968 822,336.253753 C822,324.387971 830.158211,314.432605 841.157701,311.718435 C840.217934,308.915138 839.708661,305.913602 839.708661,302.792809 C839.708661,287.329978 852.211198,274.794877 867.633858,274.794877 C875.834728,274.794877 883.209935,278.339165 888.318769,283.983279 C892.584897,263.148742 910.977208,247.479821 933.019685,247.479821 C958.222569,247.479821 978.653543,267.964011 978.653543,293.232539 C978.653543,299.726243 977.304226,305.903976 974.871359,311.499278 C986.358268,313.852693 995,324.041402 995,336.253753 C995,350.208015 983.717223,361.520179 969.799213,361.520179 Z" id="Combined-Shape-Copy-4" fill-opacity="0.74000001" transform="translate(908.500000, 304.500000) scale(-1, 1) translate(-908.500000, -304.500000) "></path>
                <path d="M134.984252,438 L19.2834646,438 L19.2834646,437.698582 C8.34715008,435.913235 0,426.411559 0,414.958084 C0,404.136991 7.45085171,395.058117 17.4966284,392.582909 C16.6383441,390.02642 16.1732283,387.289146 16.1732283,384.443114 C16.1732283,370.341664 27.5917299,358.91018 41.6771654,358.91018 C49.1669767,358.91018 55.902715,362.142421 60.5685869,367.289615 C64.464819,348.289396 81.2624215,334 101.393701,334 C124.411364,334 143.070866,352.680718 143.070866,375.724551 C143.070866,381.646535 141.838542,387.280367 139.616617,392.383047 C150.107552,394.529262 158,403.820935 158,414.958084 C158,427.683783 147.695499,438 134.984252,438 Z" id="Combined-Shape-Copy-2"></path>
            </g>
            <g id="taxi-copy-2" transform="translate(1085.000000, 837.000000)">
                <rect id="Rectangle-26" fill="#F4E100" x="0" y="16.5789474" width="88" height="26.0526316" rx="1"></rect>
                <rect id="Rectangle-26-Copy" fill="#F4E100" x="26.1621622" y="0" width="49.9459459" height="21.3157895" rx="1"></rect>
                <ellipse id="Oval" fill="#666667" cx="19.027027" cy="37.8947368" rx="7.13513514" ry="7.10526316"></ellipse>
                <ellipse id="Oval-Copy" fill="#666667" cx="71.3513514" cy="37.8947368" rx="7.13513514" ry="7.10526316"></ellipse>
            </g>
            <g id="taxi-copy-3" transform="translate(298.000000, 838.000000)">
                <rect id="Rectangle-26" fill="#F4E100" x="0" y="16.5789474" width="88" height="26.0526316" rx="1"></rect>
                <rect id="Rectangle-26-Copy" fill="#F4E100" x="26.1621622" y="0" width="49.9459459" height="21.3157895" rx="1"></rect>
                <ellipse id="Oval" fill="#666667" cx="19.027027" cy="37.8947368" rx="7.13513514" ry="7.10526316"></ellipse>
                <ellipse id="Oval-Copy" fill="#666667" cx="71.3513514" cy="37.8947368" rx="7.13513514" ry="7.10526316"></ellipse>
            </g>
            <g id="subway-entrance" transform="translate(616.000000, 758.000000)">
                <rect id="Rectangle-6" fill="#00757C" x="88.5882554" y="16.8320611" width="4.13121832" height="80.7938931"></rect>
                <rect id="Rectangle-6-Copy-6" fill="#00757C" transform="translate(45.398246, 54.797710) rotate(-90.000000) translate(-45.398246, -54.797710) " x="43.3326365" y="9.91221374" width="4.13121832" height="89.7709924"></rect>
                <rect id="Rectangle-6-Copy-7" fill="#00757C" transform="translate(46.712724, 95.942748) rotate(-90.000000) translate(-46.712724, -95.942748) " x="44.647115" y="50.4961832" width="4.13121832" height="90.8931298"></rect>
                <rect id="Rectangle-6-Copy" fill="#00757C" x="70.9366862" y="52.740458" width="4.13121832" height="44.8854962"></rect>
                <rect id="Rectangle-6-Copy-2" fill="#00757C" x="53.285117" y="52.740458" width="4.13121832" height="44.8854962"></rect>
                <rect id="Rectangle-6-Copy-3" fill="#00757C" x="35.6335478" y="52.740458" width="4.13121832" height="44.8854962"></rect>
                <rect id="Rectangle-6-Copy-4" fill="#00757C" x="17.9819786" y="52.740458" width="4.13121832" height="44.8854962"></rect>
                <rect id="Rectangle-6-Copy-5" fill="#00757C" x="0.330409357" y="52.740458" width="4.13121832" height="44.8854962"></rect>
                <ellipse id="Oval-6" fill="#FFFFFF" cx="90.4660819" cy="12.3435115" rx="12.393655" ry="12.3435115"></ellipse>
                <path d="M102.859737,12.3435115 C102.859737,5.52637832 97.3109085,0 90.4660819,0 C83.6212552,0 78.0724269,5.52637832 78.0724269,12.3435115" id="Oval-6-Copy" fill="#00757C"></path>
                <rect id="Rectangle-7" fill="#2C241E" x="4.46162768" y="56.8549618" width="66.4750585" height="18.3282443"></rect>
            </g>
            <g id="food-truck" transform="translate(980.000000, 781.000000)">
                <rect id="Rectangle-44" fill="#FFFFFF" x="13.5424837" y="46.6667527" width="60.4575163" height="23.5739266"></rect>
                <rect id="Rectangle-44-Copy" fill="#FFFFFF" x="30.4705882" y="29.3471332" width="43.5294118" height="17.5601698"></rect>
                <rect id="Rectangle-53" fill="#838181" x="21.2810458" y="12.0275136" width="2.17647059" height="34.6392391"></rect>
                <path d="M44.254902,22.0103499 C44.254902,9.8543693 34.3481047,0 22.127451,0 C9.90679725,0 0,9.8543693 0,22.0103499" id="Oval-3" fill="#FFE5AB"></path>
                <path d="M22.0055473,0 C9.78489357,0 12.0078579,22.0103499 12.0078579,22.0103499 L32.1359599,22.0103499 C32.1359599,22.0103499 34.226201,0 22.0055473,0 Z" id="Oval-3-Copy" fill="#DD441B"></path>
                <rect id="Rectangle" fill="#509BC4" x="19.1045752" y="48.8317052" width="20.3137255" height="18.7629212"></rect>
                <rect id="Rectangle-Copy" fill="#509BC4" x="49.0915033" y="48.8317052" width="20.3137255" height="18.7629212"></rect>
                <rect id="Rectangle-Copy-2" fill="#DD441B" x="34.8235294" y="31.9931861" width="34.5816993" height="12.5086141"></rect>
                <ellipse id="Oval-2" fill="#2C241E" cx="25.6339869" cy="70.7217799" rx="6.2875817" ry="6.25430707"></ellipse>
                <ellipse id="Oval-2-Copy" fill="#2C241E" cx="60.4575163" cy="70.7217799" rx="6.2875817" ry="6.25430707"></ellipse>
                <ellipse id="Oval-5" fill="#FFE5AB" cx="59.8529412" cy="60.2578431" rx="7.13398693" ry="2.28522758"></ellipse>
                <path d="M22.9749741,56.7698641 L22.9738562,56.7698641 C22.9738562,56.7533217 22.9739853,56.7368092 22.9742427,56.7203277 C22.9739852,56.6967785 22.9738562,56.6731988 22.9738562,56.649589 L22.9761387,56.649589 C23.0396795,54.9782491 24.4218677,53.6427106 26.1176471,53.6427106 C27.8134265,53.6427106 29.1956146,54.9782491 29.2591554,56.649589 L29.5055505,56.649589 C29.5690913,54.9782491 30.9512794,53.6427106 32.6470588,53.6427106 C34.3428382,53.6427106 35.7250263,54.9782491 35.7885672,56.649589 L35.7908497,56.649589 C35.7908497,56.6731988 35.7907206,56.6967785 35.7904632,56.7203277 C35.7907205,56.7368092 35.7908497,56.7533217 35.7908497,56.7698641 L35.7897318,56.7698641 C35.7252718,60.2349458 32.8812746,63.0241712 29.3823529,63.0241712 C25.8834313,63.0241712 23.0394341,60.2349458 22.9749741,56.7698641 Z" id="Combined-Shape" stroke="#FFE5AB" stroke-width="2" stroke-linecap="round" stroke-linejoin="round"></path>
                <path d="M28.8634674,55.1168613 C28.8634674,55.1168613 29.2838648,56.5953735 29.1352984,58.1496448 C28.9352663,60.2423392 27.9417219,62.5733691 25.7541341,62.5739197" id="Path-8" stroke="#FFE5AB" stroke-linecap="round" stroke-linejoin="round"></path>
                <path d="M29.8997028,55.1168613 C29.8997028,55.1168613 29.4793054,56.5953735 29.6278718,58.1496448 C29.8279039,60.2423392 30.8214483,62.5733691 33.0090361,62.5739197" id="Path-8-Copy" stroke="#FFE5AB" stroke-linecap="round" stroke-linejoin="round"></path>
                <path d="M53.9281046,57.4915149 C53.9281046,57.4915149 60.0968894,60.7715964 65.68449,57.4915149" id="Path-9-Copy" stroke="#FFE5AB" stroke-linecap="round" stroke-linejoin="round"></path>
                <path d="M53.2768855,58.6135139 C53.2768855,58.6135139 60.1290828,62.2569812 66.3357091,58.6135139" id="Path-9-Copy-2" stroke="#DD441B" stroke-linecap="round" stroke-linejoin="round"></path>
                <path d="M53.9281046,60.3781182 C53.9281046,60.3781182 60.0968894,63.6581997 65.68449,60.3781182" id="Path-9" stroke="#FFE5AB" stroke-linecap="round" stroke-linejoin="round"></path>
                <path d="M54.5228217,58.8521856 C54.5228217,58.8521856 55.5195752,58.5223791 55.7382614,58.6256412 C55.9569475,58.7289033 56.0772133,59.5273111 56.3474918,59.5273111 C56.6177702,59.5273111 57.2601173,58.9566735 57.7480361,59.1158325 C58.2359549,59.2749915 58.0645617,60.108698 58.4397677,60.108698 C58.8149737,60.108698 59.3781893,59.3830624 59.7386381,59.3830624 C60.0990868,59.3830624 60.4661589,60.150077 60.7903536,60.150077 C61.1145483,60.150077 61.6087418,59.3331302 61.7922198,59.3331302 C61.9756977,59.3331302 62.7024051,60.2380364 62.9531621,60.0924007 C63.2039192,59.946765 63.261089,59.073182 63.6774294,59.073182 C64.0937697,59.073182 64.8814815,59.6505235 64.8814815,59.383178" id="Path-10" stroke="#FFE5AB" transform="translate(59.702152, 59.377849) rotate(-2.000000) translate(-59.702152, -59.377849) "></path>
            </g>
            <g id="bakery" transform="translate(396.000000, 723.000000)">
                <rect id="rect4590" fill="#85CFC2" fill-rule="nonzero" x="3.61797753" y="10.2282158" width="153.890832" height="123.998825"></rect>
                <polygon id="rect4590-copy" fill="#85CFC2" fill-rule="nonzero" points="3.61797753 10.2282158 64.2889883 10.2282158 64.2889883 134.745932 60.3249466 139.379417 55.373782 144.909712 3.61797753 144.909712"></polygon>
                <polygon id="rect4590-copy-2" fill="#85CFC2" fill-rule="nonzero" points="97.082397 10.2282158 157.755882 10.2282158 157.755882 144.909712 107.346288 144.909712 101.886346 139.757804 97.082397 134.819376"></polygon>
                <polygon id="Rectangle-9-Copy" fill="#85CFC2" transform="translate(80.500000, 12.935685) rotate(-180.000000) translate(-80.500000, -12.935685) " points="7.71565495 -5.68434189e-14 151.741214 -5.68434189e-14 161 25.8713693 1.70530257e-13 25.8713693"></polygon>
                <path d="M29.685081,53.1664116 C29.7023272,55.5585099 28.453083,57.848092 26.4542342,59.0417483 C24.4553935,60.235419 21.9919048,60.2213995 20.0058083,59.0050686 C18.0197187,57.7887231 16.8424467,55.4853245 16.8850112,53.0935756 C21.2201433,52.8321261 25.4634315,52.9573533 29.685081,53.1664131 L29.685081,53.1664116 Z" id="path4548" fill="#00757E" fill-rule="nonzero"></path>
                <path d="M16.4191634,53.1664116 C16.4364096,55.5585099 15.1871654,57.848092 13.1883166,59.0417483 C11.1894759,60.235419 8.72598724,60.2213995 6.73989073,59.0050686 C4.75380108,57.7887231 3.57652912,55.4853245 3.61909364,53.0935756 C7.95422568,52.8321261 12.1975139,52.9573533 16.4191634,53.1664131 L16.4191634,53.1664116 Z" id="path4545" fill="#00757E" fill-rule="nonzero"></path>
                <path d="M55.0109237,53.1664116 C55.0281699,55.5585099 53.7789257,57.848092 51.7800769,59.0417483 C49.7812362,60.235419 47.3177475,60.2213995 45.331651,59.0050686 C43.3455614,57.7887231 42.1682894,55.4853245 42.2108539,53.0935756 C46.545986,52.8321261 50.7892742,52.9573533 55.0109237,53.1664131 L55.0109237,53.1664116 Z" id="path4550" fill="#00757E" fill-rule="nonzero"></path>
                <path d="M42.3480023,53.1664116 C42.3652486,55.5585099 41.1160044,57.848092 39.1171555,59.0417483 C37.1183149,60.235419 34.6548262,60.2213995 32.6687297,59.0050686 C30.68264,57.7887231 29.5053681,55.4853245 29.5479326,53.0935756 C33.8830646,52.8321261 38.1263528,52.9573533 42.3480023,53.1664131 L42.3480023,53.1664116 Z" id="path4552" fill="#00757E" fill-rule="nonzero"></path>
                <path d="M80.9397626,53.1664116 C80.9570089,55.5585099 79.7077647,57.848092 77.7089158,59.0417483 C75.7100752,60.235419 73.2465865,60.2213995 71.26049,59.0050686 C69.2744003,57.7887231 68.0971284,55.4853245 68.1396929,53.0935756 C72.4748249,52.8321261 76.7181131,52.9573533 80.9397626,53.1664131 L80.9397626,53.1664116 Z" id="path4558" fill="#00757E" fill-rule="nonzero"></path>
                <path d="M68.2768413,53.1664116 C68.2940875,55.5585099 67.0448433,57.848092 65.0459945,59.0417483 C63.0471538,60.235419 60.5836651,60.2213995 58.5975686,59.0050686 C56.611479,57.7887231 55.434207,55.4853245 55.4767715,53.0935756 C59.8119036,52.8321261 64.0551918,52.9573533 68.2768413,53.1664131 L68.2768413,53.1664116 Z" id="path4560" fill="#00757E" fill-rule="nonzero"></path>
                <path d="M106.265613,53.1664116 C106.282887,55.5585099 105.033616,57.848092 103.034765,59.0417483 C101.035927,60.235419 98.572441,60.2213995 96.586339,59.0050686 C94.6002507,57.7887231 93.4229815,55.4853245 93.465535,53.0935756 C97.800678,52.8321261 102.043955,52.9573533 106.265613,53.1664131 L106.265613,53.1664116 Z" id="path4566" fill="#00757E" fill-rule="nonzero"></path>
                <path d="M93.6026881,53.1664116 C93.6199618,55.5585099 92.3706915,57.848092 90.3718399,59.0417483 C88.373002,60.235419 85.9095078,60.2213995 83.9234113,59.0050686 C81.9373217,57.7887231 80.7600497,55.4853245 80.8026142,53.0935756 C85.1377463,52.8321261 89.3810304,52.9573533 93.6026881,53.1664131 L93.6026881,53.1664116 Z" id="path4568" fill="#00757E" fill-rule="nonzero"></path>
                <path d="M132.194452,53.1664116 C132.211726,55.5585099 130.962455,57.848092 128.963604,59.0417483 C126.964766,60.235419 124.50128,60.2213995 122.515178,59.0050686 C120.52909,57.7887231 119.35182,55.4853245 119.394374,53.0935756 C123.729517,52.8321261 127.972794,52.9573533 132.194452,53.1664131 L132.194452,53.1664116 Z" id="path4574" fill="#00757E" fill-rule="nonzero"></path>
                <path d="M119.531518,53.1664116 C119.548791,55.5585099 118.299521,57.848092 116.300669,59.0417483 C114.301832,60.235419 111.838346,60.2213995 109.852244,59.0050686 C107.866155,57.7887231 106.688886,55.4853245 106.731453,53.0935756 C111.066583,52.8321261 115.30986,52.9573533 119.531518,53.1664131 L119.531518,53.1664116 Z" id="path4576" fill="#00757E" fill-rule="nonzero"></path>
                <path d="M157.520295,53.1664116 C157.537568,55.5585099 156.288298,57.848092 154.289446,59.0417483 C152.290609,60.235419 149.827123,60.2213995 147.841021,59.0050686 C145.854932,57.7887231 144.677663,55.4853245 144.720217,53.0935756 C149.05536,52.8321261 153.298637,52.9573533 157.520295,53.1664131 L157.520295,53.1664116 Z" id="path4582" fill="#00757E" fill-rule="nonzero"></path>
                <path d="M144.85736,53.1664116 C144.874634,55.5585099 143.625364,57.848092 141.626512,59.0417483 C139.627674,60.235419 137.164188,60.2213995 135.178086,59.0050686 C133.191998,57.7887231 132.014729,55.4853245 132.057296,53.0935756 C136.392425,52.8321261 140.635703,52.9573533 144.85736,53.1664131 L144.85736,53.1664116 Z" id="path4584" fill="#00757E" fill-rule="nonzero"></path>
                <rect id="rect6066" stroke="#00757E" fill="#85CFC2" fill-rule="nonzero" x="64.2889883" y="67.3858921" width="32.1904125" height="66.841149"></rect>
                <rect id="rect6068" fill="#693614" fill-rule="nonzero" x="67.4319616" y="70.9958506" width="25.9044659" height="40.9128631"></rect>
                <rect id="rect6072" fill="#00757E" fill-rule="nonzero" x="66.7009733" y="114.917012" width="27.4805102" height="14.884258"></rect>
                <rect id="Rectangle" fill="#00757E" x="3.61797753" y="27.6763485" width="153.764045" height="25.8713693"></rect>
                <rect id="Rectangle-34" fill="#693614" x="7.23595506" y="70.9958506" width="41.6067416" height="62.5726141"></rect>
                <polygon id="Rectangle-34-Copy-2" fill="#693614" points="51.8576779 70.8366223 62.1086142 67.3858921 62.1086142 125.58766 51.8576779 133.409236"></polygon>
                <polygon id="Rectangle-34-Copy-3" fill="#693614" transform="translate(104.619850, 100.397564) scale(-1, 1) translate(-104.619850, -100.397564) " points="99.494382 70.8366223 109.745318 67.3858921 109.745318 125.58766 99.494382 133.409236"></polygon>
                <rect id="Rectangle-34-Copy" fill="#693614" x="111.554307" y="70.9958506" width="41.6067416" height="62.5726141"></rect>
                <g id="shelf" transform="translate(11.456929, 86.037344)">
                    <g id="Group-4">
                        <rect id="Rectangle-35-Copy" fill="#D8D8D8" x="0" y="8.42323651" width="34.3707865" height="3.60995851"></rect>
                        <g id="Group-3" transform="translate(3.014981, 0.000000)">
                            <ellipse id="Oval-3" fill="#FBD5A3" cx="23.8183521" cy="4.21161826" rx="6.33146067" ry="4.21161826"></ellipse>
                            <ellipse id="Oval-3-Copy" fill="#FBD5A3" cx="6.33146067" cy="4.21161826" rx="6.33146067" ry="4.21161826"></ellipse>
                            <path d="M5.42696629,2.406639 C5.42696629,2.406639 8.75712195,5.72941358 7.6930773,4.6825373" id="Line" stroke="#DEA860" stroke-linecap="square"></path>
                            <path d="M22.9138577,2.406639 C22.9138577,2.406639 26.2440133,5.72941358 25.1799687,4.6825373" id="Line-Copy-5" stroke="#DEA860" stroke-linecap="square"></path>
                            <path d="M8.44194757,2.406639 C8.44194757,2.406639 11.7721032,5.72941358 10.7080586,4.6825373" id="Line-Copy-4" stroke="#DEA860" stroke-linecap="square"></path>
                            <path d="M25.928839,2.406639 C25.928839,2.406639 29.2589946,5.72941358 28.19495,4.6825373" id="Line-Copy-6" stroke="#DEA860" stroke-linecap="square"></path>
                            <path d="M2.41198502,2.406639 C2.41198502,2.406639 5.74214068,5.72941358 4.67809602,4.6825373" id="Line-Copy-3" stroke="#DEA860" stroke-linecap="square"></path>
                            <path d="M19.8988764,2.406639 C19.8988764,2.406639 23.2290321,5.72941358 22.1649874,4.6825373" id="Line-Copy-7" stroke="#DEA860" stroke-linecap="square"></path>
                        </g>
                    </g>
                    <g id="Group-2" transform="translate(0.000000, 14.498423)">
                        <rect id="Rectangle-35" fill="#D8D8D8" x="0" y="22.8044819" width="34.3707865" height="3.60995851"></rect>
                        <g id="Group" transform="translate(26.796179, 11.295553) rotate(-60.000000) translate(-26.796179, -11.295553) translate(15.796179, 8.295553)">
                            <ellipse id="Oval-2" fill="#FCD5A3" cx="10.8539326" cy="2.70746888" rx="10.8539326" ry="2.70746888"></ellipse>
                            <path d="M6.93445693,1.50414938 L8.14044944,3.30912863" id="Line" stroke="#DCA55B" stroke-linecap="square"></path>
                            <path d="M10.5524345,1.50414938 L11.758427,3.30912863" id="Line-Copy" stroke="#DCA55B" stroke-linecap="square"></path>
                            <path d="M14.170412,1.50414938 L15.3764045,3.30912863" id="Line-Copy-2" stroke="#DCA55B" stroke-linecap="square"></path>
                        </g>
                        <g id="Group-Copy" transform="translate(18.354232, 11.295553) rotate(-60.000000) translate(-18.354232, -11.295553) translate(7.354232, 8.295553)">
                            <ellipse id="Oval-2" fill="#FCD5A3" cx="10.8539326" cy="2.70746888" rx="10.8539326" ry="2.70746888"></ellipse>
                            <path d="M6.93445693,1.50414938 L8.14044944,3.30912863" id="Line" stroke="#DCA55B" stroke-linecap="square"></path>
                            <path d="M10.5524345,1.50414938 L11.758427,3.30912863" id="Line-Copy" stroke="#DCA55B" stroke-linecap="square"></path>
                            <path d="M14.170412,1.50414938 L15.3764045,3.30912863" id="Line-Copy-2" stroke="#DCA55B" stroke-linecap="square"></path>
                        </g>
                        <g id="Group-Copy-2" transform="translate(9.912284, 11.295553) rotate(-60.000000) translate(-9.912284, -11.295553) translate(-1.087716, 8.295553)">
                            <ellipse id="Oval-2" fill="#FCD5A3" cx="10.8539326" cy="2.70746888" rx="10.8539326" ry="2.70746888"></ellipse>
                            <path d="M6.93445693,1.50414938 L8.14044944,3.30912863" id="Line" stroke="#DCA55B" stroke-linecap="square"></path>
                            <path d="M10.5524345,1.50414938 L11.758427,3.30912863" id="Line-Copy" stroke="#DCA55B" stroke-linecap="square"></path>
                            <path d="M14.170412,1.50414938 L15.3764045,3.30912863" id="Line-Copy-2" stroke="#DCA55B" stroke-linecap="square"></path>
                        </g>
                    </g>
                </g>
                <g id="shelf-copy" transform="translate(115.172285, 86.037344)">
                    <g id="Group-4">
                        <rect id="Rectangle-35-Copy" fill="#D8D8D8" x="0" y="8.42323651" width="34.3707865" height="3.60995851"></rect>
                        <g id="Group-3" transform="translate(3.014981, 0.000000)">
                            <ellipse id="Oval-3" fill="#FBD5A3" cx="23.8183521" cy="4.21161826" rx="6.33146067" ry="4.21161826"></ellipse>
                            <ellipse id="Oval-3-Copy" fill="#FBD5A3" cx="6.33146067" cy="4.21161826" rx="6.33146067" ry="4.21161826"></ellipse>
                            <path d="M5.42696629,2.406639 C5.42696629,2.406639 8.75712195,5.72941358 7.6930773,4.6825373" id="Line" stroke="#DEA860" stroke-linecap="square"></path>
                            <path d="M22.9138577,2.406639 C22.9138577,2.406639 26.2440133,5.72941358 25.1799687,4.6825373" id="Line-Copy-5" stroke="#DEA860" stroke-linecap="square"></path>
                            <path d="M8.44194757,2.406639 C8.44194757,2.406639 11.7721032,5.72941358 10.7080586,4.6825373" id="Line-Copy-4" stroke="#DEA860" stroke-linecap="square"></path>
                            <path d="M25.928839,2.406639 C25.928839,2.406639 29.2589946,5.72941358 28.19495,4.6825373" id="Line-Copy-6" stroke="#DEA860" stroke-linecap="square"></path>
                            <path d="M2.41198502,2.406639 C2.41198502,2.406639 5.74214068,5.72941358 4.67809602,4.6825373" id="Line-Copy-3" stroke="#DEA860" stroke-linecap="square"></path>
                            <path d="M19.8988764,2.406639 C19.8988764,2.406639 23.2290321,5.72941358 22.1649874,4.6825373" id="Line-Copy-7" stroke="#DEA860" stroke-linecap="square"></path>
                        </g>
                    </g>
                    <g id="Group-2" transform="translate(0.000000, 14.498423)">
                        <rect id="Rectangle-35" fill="#D8D8D8" x="0" y="22.8044819" width="34.3707865" height="3.60995851"></rect>
                        <g id="Group" transform="translate(26.796179, 11.295553) rotate(-60.000000) translate(-26.796179, -11.295553) translate(15.796179, 8.295553)">
                            <ellipse id="Oval-2" fill="#FCD5A3" cx="10.8539326" cy="2.70746888" rx="10.8539326" ry="2.70746888"></ellipse>
                            <path d="M6.93445693,1.50414938 L8.14044944,3.30912863" id="Line" stroke="#DCA55B" stroke-linecap="square"></path>
                            <path d="M10.5524345,1.50414938 L11.758427,3.30912863" id="Line-Copy" stroke="#DCA55B" stroke-linecap="square"></path>
                            <path d="M14.170412,1.50414938 L15.3764045,3.30912863" id="Line-Copy-2" stroke="#DCA55B" stroke-linecap="square"></path>
                        </g>
                        <g id="Group-Copy" transform="translate(18.354232, 11.295553) rotate(-60.000000) translate(-18.354232, -11.295553) translate(7.354232, 8.295553)">
                            <ellipse id="Oval-2" fill="#FCD5A3" cx="10.8539326" cy="2.70746888" rx="10.8539326" ry="2.70746888"></ellipse>
                            <path d="M6.93445693,1.50414938 L8.14044944,3.30912863" id="Line" stroke="#DCA55B" stroke-linecap="square"></path>
                            <path d="M10.5524345,1.50414938 L11.758427,3.30912863" id="Line-Copy" stroke="#DCA55B" stroke-linecap="square"></path>
                            <path d="M14.170412,1.50414938 L15.3764045,3.30912863" id="Line-Copy-2" stroke="#DCA55B" stroke-linecap="square"></path>
                        </g>
                        <g id="Group-Copy-2" transform="translate(9.912284, 11.295553) rotate(-60.000000) translate(-9.912284, -11.295553) translate(-1.087716, 8.295553)">
                            <ellipse id="Oval-2" fill="#FCD5A3" cx="10.8539326" cy="2.70746888" rx="10.8539326" ry="2.70746888"></ellipse>
                            <path d="M6.93445693,1.50414938 L8.14044944,3.30912863" id="Line" stroke="#DCA55B" stroke-linecap="square"></path>
                            <path d="M10.5524345,1.50414938 L11.758427,3.30912863" id="Line-Copy" stroke="#DCA55B" stroke-linecap="square"></path>
                            <path d="M14.170412,1.50414938 L15.3764045,3.30912863" id="Line-Copy-2" stroke="#DCA55B" stroke-linecap="square"></path>
                        </g>
                    </g>
                </g>
                <rect id="Rectangle-36" fill="#00757E" x="3.61797753" y="10.2282158" width="153.764045" height="6.01659751"></rect>
                <rect id="Rectangle-36-Copy" fill="#00757E" x="3.61797753" y="18.9522822" width="153.764045" height="1.80497925"></rect>
            </g>
            <g id="tree-copy" transform="translate(567.000000, 791.000000)">
                <rect id="Rectangle-33" fill="#734A4A" x="15.8123437" y="35.8797814" width="5.29491212" height="30.8933985"></rect>
                <ellipse id="Oval-9-Copy-4" fill="#529F76" cx="12.3451217" cy="28.2690483" rx="12.3451217" ry="14.3564799"></ellipse>
                <ellipse id="Oval-9-Copy-5" fill="#529F76" cx="24.9304564" cy="28.2690483" rx="12.3451217" ry="14.3564799"></ellipse>
                <ellipse id="Oval-9-Copy-6" fill="#529F76" cx="19.1218404" cy="14.3564799" rx="12.3451217" ry="14.3564799"></ellipse>
            </g>
            <g id="tree-copy-2" transform="translate(261.000000, 789.000000)">
                <rect id="Rectangle-33" fill="#734A4A" x="15.8123437" y="35.8797814" width="5.29491212" height="30.8933985"></rect>
                <ellipse id="Oval-9-Copy-4" fill="#529F76" cx="12.3451217" cy="28.2690483" rx="12.3451217" ry="14.3564799"></ellipse>
                <ellipse id="Oval-9-Copy-5" fill="#529F76" cx="24.9304564" cy="28.2690483" rx="12.3451217" ry="14.3564799"></ellipse>
                <ellipse id="Oval-9-Copy-6" fill="#529F76" cx="19.1218404" cy="14.3564799" rx="12.3451217" ry="14.3564799"></ellipse>
            </g>
            <g id="Group" transform="translate(877.890693, 420.000000)">
                <use id="Rectangle-49" stroke="#0997C5" mask="url(#mask-2)" stroke-width="5.47945205" fill-opacity="0.385529891" fill="#0086AE" xlink:href="#path-1"></use>
                <use id="Rectangle-45" stroke="#0997C5" mask="url(#mask-4)" stroke-width="5.47945205" fill-opacity="0.385529891" fill="#0086AE" xlink:href="#path-3"></use>
                <use id="Rectangle-45-Copy" stroke="#0997C5" mask="url(#mask-6)" stroke-width="5.47945205" fill-opacity="0.385529891" fill="#0086AE" xlink:href="#path-5"></use>
                <use id="Rectangle-45-Copy-2" stroke="#0997C5" mask="url(#mask-8)" stroke-width="5.47945205" fill-opacity="0.385529891" fill="#0086AE" xlink:href="#path-7"></use>
                <polygon id="Path-6" stroke="#0997C5" stroke-width="2.73972603" fill-opacity="0.369084013" fill="#0270AD" points="0.132295095 437.961874 70.2596154 437.961874 70.2596154 96.4995566 0 96.4995566"></polygon>
                <polygon id="Path-7" stroke="#0270AD" stroke-width="2.73972603" stroke-linecap="round" stroke-linejoin="round" points="0.89000902 393.979997 67.5997067 393.979997 32.1738414 98.7617436"></polygon>
                <path d="M31.896263,1.50909536 L31.896263,34.7091932" id="Line" stroke="#0270AD" stroke-width="2.73972603" stroke-linecap="square" fill-opacity="0.385529891" fill="#0086AE"></path>
            </g>
            <g id="tour-bus" transform="translate(748.000000, 802.000000)">
                <path d="M0.620915033,20.5973154 L190,20.5973154 L190,68.6379628 C190,76.9220248 183.287737,83.6375839 175.001271,83.6375839 L15.6196436,83.6375839 C7.33607456,83.6375839 0.620915033,76.9210387 0.620915033,68.6379628 L0.620915033,20.5973154 Z" id="Rectangle-5" fill="#DD441B"></path>
                <ellipse id="Oval" fill="#211918" cx="35.7026144" cy="82.7013423" rx="10.245098" ry="10.2986577"></ellipse>
                <ellipse id="Oval-Copy" fill="#9F9D9E" cx="35.7026144" cy="82.7013423" rx="6.51960784" ry="6.55369128"></ellipse>
                <ellipse id="Oval" fill="#211918" cx="130.702614" cy="82.7013423" rx="10.245098" ry="10.2986577"></ellipse>
                <ellipse id="Oval" fill="#211918" cx="159.264706" cy="82.7013423" rx="10.245098" ry="10.2986577"></ellipse>
                <ellipse id="Oval-Copy" fill="#9F9D9E" cx="130.702614" cy="82.7013423" rx="6.51960784" ry="6.55369128"></ellipse>
                <ellipse id="Oval-Copy-2" fill="#9F9D9E" cx="159.264706" cy="82.7013423" rx="6.51960784" ry="6.55369128"></ellipse>
                <rect id="Rectangle-13" fill="#211918" x="6.83006536" y="48.0604027" width="170.130719" height="18.7248322"></rect>
                <path d="M0.620915033,12.1711409 C0.620915033,5.44920541 6.06392696,0 12.7969254,0 L34.1503268,0 L34.1503268,24.3422819 L0.620915033,24.3422819 L0.620915033,12.1711409 Z" id="Rectangle-14" fill="#DD441B"></path>
                <path d="M4.96732026,12.1711409 C4.96732026,7.17277862 9.0130261,3.12080537 14.0217426,3.12080537 L29.8039216,3.12080537 L29.8039216,21.2214765 L4.96732026,21.2214765 L4.96732026,12.1711409 Z" id="Rectangle-14-Copy-2" fill="#211918"></path>
                <path d="M180.065359,4.97005694 C180.065359,2.22517028 182.294887,0 185.03268,0 L190,0 L190,24.3422819 L180.065359,24.3422819 L180.065359,4.97005694 Z" id="Rectangle-14-Copy" fill="#DD441B" transform="translate(185.032680, 12.171141) scale(-1, 1) translate(-185.032680, -12.171141) "></path>
                <rect id="Rectangle-15-Copy" fill="#D8D8D8" x="34.1503268" y="13.1073826" width="145.915033" height="2.4966443"></rect>
                <rect id="Rectangle-16" fill="#211918" x="181.928105" y="77.3959732" width="8.07189542" height="6.24161074" rx="1"></rect>
                <rect id="Rectangle-16-Copy" fill="#211918" x="0" y="77.3959732" width="8.07189542" height="6.24161074" rx="1"></rect>
            </g>
        </g>
    </g>
</svg>