<?xml version="1.0" standalone="no"?>
<!DOCTYPE svg PUBLIC "-//W3C//DTD SVG 20010904//EN"
 "http://www.w3.org/TR/2001/REC-SVG-20010904/DTD/svg10.dtd">
<svg version="1.0" xmlns="http://www.w3.org/2000/svg"
 width="998.000000pt" height="998.000000pt" viewBox="0 0 998.000000 998.000000"
 preserveAspectRatio="xMidYMid meet">
<metadata>
Created by potrace 1.11, written by Peter Selinger 2001-2013
</metadata>
<g transform="translate(0.000000,998.000000) scale(0.100000,-0.100000)"
fill="#000000" stroke="none">
<path d="M4797 9794 c-1 -1 -54 -4 -117 -8 -109 -5 -141 -8 -270 -21 -111 -12
-278 -37 -375 -57 -55 -11 -111 -22 -124 -24 -192 -37 -608 -169 -836 -266
-166 -71 -443 -208 -538 -266 -37 -23 -70 -42 -73 -42 -26 0 -539 -363 -594
-420 -3 -3 -21 -18 -40 -34 -112 -91 -337 -307 -455 -437 -508 -558 -883
-1229 -1085 -1944 -48 -168 -91 -359 -115 -510 -9 -55 -18 -111 -20 -125 -2
-14 -7 -50 -10 -80 -3 -30 -7 -66 -10 -80 -5 -27 -14 -136 -21 -235 -5 -77 -5
-539 0 -585 2 -19 7 -77 11 -128 3 -51 8 -101 10 -110 1 -9 6 -44 9 -77 4 -33
9 -71 11 -85 7 -46 37 -225 41 -245 2 -11 7 -33 10 -50 9 -53 45 -197 80 -324
173 -620 466 -1194 872 -1705 257 -324 563 -621 895 -870 92 -68 401 -276 411
-276 3 0 34 -18 70 -39 104 -64 360 -192 516 -258 282 -120 591 -218 874 -279
156 -33 143 -30 206 -40 30 -4 57 -8 60 -9 3 -1 32 -5 65 -9 33 -5 69 -10 80
-12 11 -2 49 -7 85 -9 36 -3 74 -8 85 -10 117 -23 704 -23 900 0 22 3 60 7 85
10 122 15 253 33 294 41 11 2 35 7 51 9 253 44 688 168 880 251 17 7 71 29
120 49 128 52 380 177 515 255 396 228 705 465 1020 780 167 167 187 189 300
325 41 50 81 96 88 103 6 7 12 17 12 20 0 4 10 18 22 32 86 95 290 404 396
600 20 36 46 82 59 102 13 21 23 40 23 43 0 3 27 61 60 130 33 69 60 127 60
129 0 3 13 33 29 68 89 194 223 624 275 883 4 17 9 41 12 55 37 180 67 419 81
655 17 279 1 739 -32 916 -1 8 -6 42 -9 75 -10 87 -72 392 -106 519 -89 339
-184 591 -340 910 -110 224 -246 458 -358 615 -18 25 -40 56 -50 70 -274 387
-652 771 -1056 1073 -489 364 -1062 639 -1651 792 -166 43 -344 82 -415 91
-19 2 -57 8 -85 13 -58 11 -119 19 -280 36 -114 12 -598 27 -608 19z"/>
</g>
</svg>
